     <svg 
     width="40"
      height="60"
     class="INDvideoCaptionsSvg" xmlns="http://www.w3.org/2000/svg"
                                                xmlns:xlink="http://www.w3.org/1999/xlink" viewBox="0 0 58.86 51.74">
                                                <g>
                                                      <path
                                                            d="m8.92,50.86c0,.49.39.88.88.88h39.13c.49,0,.88-.39.88-.88s-.39-.88-.88-.88H9.8c-.49,0-.88.39-.88.88h0">
                                                      </path>
                                                      <g>
                                                            <g>
                                                                  <path
                                                                        d="m10.23,31.76h-2.76c-.41,0-.8.36-.78.78s.34.78.78.78h1.49c.41,0,.8-.36.78-.78s-.34-.78-.78-.78h-1.49c-.41,0-.8.36-.78.78s.34.78.78.78h2.76c.41,0,.8-.36.78-.78s-.34-.78-.78-.78h0Z">
                                                                  </path>
                                                                  <path
                                                                        d="m8.84,27.32c-.53.63-1.07,1.22-1.52,1.91-.3.47-.57.99-.73,1.53-.18.58-.31,1.47.08,1.99.25.32.69.53,1.07.28.32-.21.55-.72.28-1.07-.05-.07-.05-.07-.01.02l-.02-.06c.01.1.02.1,0,0v-.07c0-.06-.03-.28,0-.33-.02.12-.02.13,0,.04v-.06c.02-.06.03-.11.05-.17.03-.11.06-.22.1-.33.02-.06.04-.11.06-.17-.07.19,0,0,.02-.03.05-.11.1-.22.16-.32.11-.21.24-.42.37-.62.06-.1.13-.19.2-.29.03-.05.07-.09.1-.14.03-.04.11-.19.01-.02.09-.16.25-.31.38-.46.16-.19.33-.36.49-.55.26-.31.33-.8,0-1.11-.29-.27-.83-.34-1.11,0h0Z">
                                                                  </path>
                                                            </g>
                                                            <g>
                                                                  <path
                                                                        d="m15.14,31.76h-2.76c-.41,0-.8.36-.78.78s.34.78.78.78h1.49c.41,0,.8-.36.78-.78s-.34-.78-.78-.78h-1.49c-.41,0-.8.36-.78.78s.34.78.78.78h2.76c.41,0,.8-.36.78-.78s-.34-.78-.78-.78h0Z">
                                                                  </path>
                                                                  <path
                                                                        d="m13.75,27.32c-.53.63-1.07,1.22-1.52,1.91-.3.47-.57.99-.73,1.53-.18.58-.31,1.47.08,1.99.25.32.69.53,1.07.28.32-.21.55-.72.28-1.07-.05-.07-.05-.07-.01.02l-.02-.06c.01.1.02.1,0,0v-.07c0-.06-.03-.28,0-.33-.02.12-.02.13,0,.04v-.06c.02-.06.03-.11.05-.17.03-.11.06-.22.1-.33.02-.06.04-.11.06-.17-.07.19,0,0,.02-.03.05-.11.1-.22.16-.32.11-.21.24-.42.37-.62.06-.1.13-.19.2-.29.03-.05.07-.09.1-.14.03-.04.11-.19.01-.02.09-.16.25-.31.38-.46.16-.19.33-.36.49-.55.26-.31.33-.8,0-1.11-.29-.27-.83-.34-1.11,0h0Z">
                                                                  </path>
                                                            </g>
                                                      </g>
                                                      <g>
                                                            <path
                                                                  d="m6.87,37.62c.03.51.46.91.98.88h10.27c.49.05.92-.3.97-.79.05-.49-.3-.92-.79-.97-.06,0-.12,0-.18,0H7.85c-.51-.03-.95.37-.98.88">
                                                            </path>
                                                            <path
                                                                  d="m30.73,37.62c.03.51.46.91.98.88h7.66c.49.05.92-.3.97-.79.05-.49-.3-.92-.79-.97-.06,0-.12,0-.18,0h-7.66c-.51-.03-.95.37-.98.88">
                                                            </path>
                                                            <path
                                                                  d="m17.67,32.54c.03.51.46.91.98.88h12.01c.49.05.92-.3.97-.79.05-.49-.3-.92-.79-.97-.06,0-.12,0-.18,0h-12.01c-.51-.03-.95.37-.98.88">
                                                            </path>
                                                            <path
                                                                  d="m33.48,32.54c.03.51.46.91.98.88h5.05c.49.05.92-.3.97-.79.05-.49-.3-.92-.79-.97-.06,0-.12,0-.18,0h-5.05c-.51-.03-.95.37-.98.88">
                                                            </path>
                                                            <path
                                                                  d="m42.05,37.62c.03.51.46.91.98.88h7.66c.49.05.92-.3.97-.79.05-.49-.3-.92-.79-.97-.06,0-.12,0-.18,0h-7.66c-.51-.03-.95.37-.98.88">
                                                            </path>
                                                            <path
                                                                  d="m42.05,32.54c.03.51.46.91.98.88h7.66c.49.05.92-.3.97-.79.05-.49-.3-.92-.79-.97-.06,0-.12,0-.18,0h-7.66c-.51-.03-.95.37-.98.88">
                                                            </path>
                                                            <path
                                                                  d="m21.06,37.62c.03.51.46.91.98.88h5.05c.49.05.92-.3.97-.79.05-.49-.3-.92-.79-.97-.06,0-.12,0-.18,0h-5.05c-.51-.03-.95.37-.98.88">
                                                            </path>
                                                      </g>
                                                      <path
                                                            d="m36.37,16.64l-9.75-5.63c-.51-.29-1.16-.12-1.45.39-.09.16-.14.35-.14.53v11.26c0,.59.48,1.06,1.06,1.06.19,0,.37-.05.53-.14l9.75-5.63c.51-.29.68-.94.39-1.45-.09-.16-.23-.3-.39-.39">
                                                      </path>
                                                </g>
                                                <g>
                                                      <rect x="1.68" y="1.2" width="55.98" height="44.4" rx="3.16" ry="3.16">
                                                      </rect>
                                                </g>
                                          </svg>
      