   <svg version="1.2" baseProfile="tiny" xmlns="http://www.w3.org/2000/svg"
                                                      xmlns:xlink="http://www.w3.org/1999/xlink" x="0px" y="0px"
                                                      width="40px" height="60px" viewBox="0 0 127.003 127.002"
                                                      xml:space="preserve">
                                                      <path d="M63.502,24.318c-21.64,0.004-39.178,17.542-39.18,39.184c0.002,21.64,17.54,39.178,39.18,39.182
      	c21.64-0.004,39.18-17.542,39.183-39.182C102.682,41.86,85.142,24.322,63.502,24.318z M63.502,95.682
      	c-17.771-0.032-32.148-14.408-32.18-32.18C31.354,45.729,45.73,31.35,63.502,31.32c17.771,0.029,32.149,14.408,32.182,32.182
      	C95.651,81.273,81.273,95.649,63.502,95.682z M63.502,110.851c-1.933,0-3.5,1.565-3.5,3.499v9.153c0,1.932,1.567,3.499,3.5,3.499
      	c1.932,0,3.501-1.567,3.501-3.499v-9.153C67.003,112.416,65.434,110.851,63.502,110.851z M63.501,16.151
      	c1.934,0,3.502-1.565,3.502-3.499V3.501C67.003,1.567,65.435,0,63.501,0c-1.933,0-3.499,1.567-3.499,3.501v9.151
      	C60.002,14.586,61.568,16.151,63.501,16.151z M14.47,60.002H3.501C1.567,60.002,0,61.568,0,63.501s1.567,3.501,3.501,3.501H14.47
      	c1.933,0,3.499-1.568,3.499-3.501S16.403,60.002,14.47,60.002z M123.503,60.002h-10.969c-1.932,0-3.499,1.566-3.499,3.499
      	s1.567,3.501,3.499,3.501h10.969c1.933,0,3.5-1.568,3.5-3.501S125.436,60.002,123.503,60.002z M25.741,96.313l-7.142,7.142
      	c-1.367,1.366-1.367,3.583,0,4.949c0.683,0.684,1.58,1.025,2.476,1.025c0.895,0,1.791-0.341,2.473-1.025l7.143-7.14
      	c1.368-1.366,1.368-3.583,0.002-4.949C29.326,94.946,27.109,94.946,25.741,96.313z M98.789,31.714c0.896,0,1.792-0.341,2.476-1.024
      	l7.139-7.14c1.367-1.369,1.367-3.584,0-4.95c-1.366-1.366-3.583-1.366-4.949,0l-7.141,7.14c-1.366,1.366-1.366,3.582,0,4.95
      	C96.997,31.373,97.894,31.714,98.789,31.714z M101.263,96.313c-1.366-1.366-3.582-1.366-4.951,0c-1.366,1.366-1.366,3.582,0,4.949
      	l7.143,7.142c0.684,0.684,1.578,1.025,2.475,1.025c0.896,0,1.791-0.342,2.475-1.025c1.366-1.368,1.366-3.583,0-4.951L101.263,96.313
      	z M25.741,30.689c0.683,0.684,1.579,1.025,2.474,1.025c0.896,0,1.792-0.342,2.476-1.025c1.366-1.366,1.366-3.584,0-4.95l-7.144-7.14
      	c-1.367-1.368-3.582-1.366-4.948,0c-1.368,1.366-1.366,3.584,0,4.95L25.741,30.689z"></path>
                                                </svg>