 <svg version="1.2" fill="#17384C" baseProfile="tiny"
                                                xmlns="http://www.w3.org/2000/svg" xmlns:xlink="http://www.w3.org/1999/xlink"
                                                x="0px" y="0px" width="30px" height="25px"
                                                viewBox="0 0 132.334 143.918" xml:space="preserve">
                                                <path d="M74.482,12.121l5.861-5.86c1.434-1.434,1.434-3.755,0.003-5.187c-1.434-1.431-3.753-1.434-5.187,0L63.574,12.658
      		c-0.685,0.683-1.076,1.628-1.076,2.593s0.391,1.91,1.076,2.594L75.16,29.43c0.715,0.716,1.654,1.073,2.592,1.073
      		c0.939,0,1.878-0.357,2.595-1.073c1.431-1.433,1.431-3.753,0-5.185L75.82,19.72c27.889,4.604,49.186,28.83,49.18,58.032
      		c-0.002,16.257-6.579,30.942-17.232,41.601c-10.658,10.651-25.344,17.23-41.601,17.232c-16.26-0.002-30.945-6.581-41.603-17.232
      		C13.913,108.694,7.335,94.009,7.333,77.752c0.002-14.57,5.282-27.87,14.042-38.15c1.314-1.54,1.131-3.855-0.411-5.169
      		c-1.54-1.314-3.855-1.129-5.169,0.411C5.949,46.387-0.002,61.393,0,77.752c0.002,36.544,29.623,66.164,66.167,66.166
      		c36.544-0.002,66.165-29.622,66.167-66.166C132.324,44.026,107.108,16.219,74.482,12.121z M64.768,112.046
      		c15.871-0.002,28.736-12.865,28.738-28.738c-0.027-4.429-1.889-8.886-4.432-13.293C81.393,56.89,66.719,43.941,66.627,43.831
      		l-0.012-0.009c-0.07-0.062-0.146-0.115-0.223-0.17c-0.034-0.024-0.066-0.053-0.102-0.076c-0.064-0.041-0.133-0.075-0.201-0.111
      		c-0.053-0.028-0.103-0.061-0.156-0.085c-0.007-0.003-0.014-0.008-0.02-0.011c-0.056-0.024-0.113-0.04-0.169-0.062
      		c-0.063-0.023-0.126-0.05-0.191-0.069c-0.067-0.02-0.137-0.032-0.206-0.047c-0.06-0.013-0.12-0.028-0.181-0.037
      		c-0.082-0.012-0.164-0.016-0.245-0.02c-0.049-0.003-0.097-0.009-0.146-0.01c-0.098,0-0.196,0.009-0.293,0.019
      		c-0.032,0.004-0.064,0.004-0.097,0.008c-0.115,0.016-0.229,0.041-0.341,0.071c-0.015,0.004-0.031,0.006-0.046,0.01
      		c-0.122,0.035-0.24,0.079-0.357,0.13c-0.007,0.004-0.015,0.006-0.023,0.009c-0.001,0-0.002,0.001-0.003,0.002
      		c-0.103,0.046-0.202,0.102-0.299,0.161c-0.021,0.013-0.043,0.022-0.063,0.035c-0.062,0.04-0.119,0.088-0.178,0.133
      		c-0.051,0.039-0.105,0.075-0.153,0.117c-0.004,0.004-0.009,0.007-0.014,0.011c-0.055,0.053-6.61,5.873-13.234,13.589
      		c-3.314,3.863-6.65,8.196-9.213,12.595c-2.544,4.407-4.405,8.863-4.433,13.294C36.031,99.182,48.896,112.044,64.768,112.046z
      		M45.297,72.83c3.45-5.939,8.813-12.216,13.292-16.933c1.209-1.273,2.354-2.437,3.38-3.456v53.837
      		c-11.458-1.397-20.325-11.139-20.345-22.971C41.595,80.572,42.979,76.774,45.297,72.83z"></path>
                                          </svg>