<svg version="1.2" baseProfile="tiny" xmlns="http://www.w3.org/2000/svg" xmlns:xlink="http://www.w3.org/1999/xlink" x="0px" y="0px" width="30" height="25" viewBox="0 0 103.277 124.513" xml:space="preserve">
	<path fill="#" d="M95.281,49.057C81.262,25.063,54.081,1.02,53.965,0.884c-0.003-0.003-0.007-0.005-0.011-0.008
		c-0.082-0.073-0.174-0.138-0.264-0.203c-0.051-0.036-0.099-0.077-0.15-0.111c-0.051-0.032-0.106-0.059-0.159-0.089
		c-0.098-0.057-0.195-0.113-0.297-0.16c-0.004-0.002-0.007-0.004-0.011-0.006c-0.03-0.014-0.061-0.021-0.09-0.033
		c-0.124-0.051-0.248-0.1-0.375-0.136c-0.047-0.014-0.094-0.021-0.14-0.032c-0.114-0.027-0.228-0.055-0.343-0.071
		c-0.069-0.01-0.139-0.011-0.208-0.017C51.826,0.01,51.733,0,51.64,0s-0.186,0.01-0.279,0.018c-0.069,0.006-0.139,0.007-0.208,0.017
		c-0.116,0.017-0.229,0.044-0.343,0.071c-0.046,0.012-0.093,0.019-0.14,0.032c-0.127,0.036-0.251,0.085-0.375,0.136
		c-0.03,0.013-0.06,0.02-0.09,0.033c-0.004,0.002-0.007,0.004-0.011,0.006c-0.102,0.047-0.199,0.104-0.297,0.16
		c-0.053,0.03-0.108,0.057-0.159,0.089c-0.052,0.034-0.1,0.075-0.15,0.111c-0.09,0.065-0.181,0.13-0.264,0.203
		c-0.003,0.003-0.007,0.005-0.01,0.008c-0.068,0.063-12.19,10.832-24.399,25.053c-6.105,7.117-12.239,15.092-16.916,23.12
		C3.345,57.097,0.036,65.166,0,72.874c0.002,28.52,23.12,51.635,51.641,51.639c28.519-0.004,51.634-23.119,51.636-51.639
		C103.244,65.166,99.935,57.097,95.281,49.057z M7.002,72.874c-0.036-5.588,2.674-12.835,7.044-20.294
		c6.523-11.218,16.542-22.925,24.902-31.731c3.47-3.66,6.655-6.828,9.19-9.278v105.806c-10.938-0.847-20.746-5.627-28.063-12.938
		C11.992,96.348,7.002,85.211,7.002,72.874z" stroke="#17384C"></path>
</svg>