   <svg version="1.2" baseProfile="tiny" xmlns="http://www.w3.org/2000/svg"
                                                      xmlns:xlink="http://www.w3.org/1999/xlink" x="0px" y="0px"
                                                      width="40px" height="60px" viewBox="0 0 77.501 80.057"
                                                      xml:space="preserve">
                                                      <path d="M76.881,57.929c-0.743-0.88-1.992-1.206-3.092-0.827c-3.081,1.061-6.424,1.607-9.941,1.607
      		c-16.84,0-30.538-13.173-30.538-29.355c0-9.741,5.004-18.808,13.382-24.262c0.949-0.62,1.402-1.735,1.148-2.809
      		c-0.254-1.071-1.172-1.884-2.309-2.043C44.231,0.058,42.938,0,41.64,0C18.676,0,0,17.954,0,40.028s18.676,40.028,41.64,40.028
      		c14.572,0,27.829-7.12,35.454-19.043C77.708,60.048,77.62,58.815,76.881,57.929z"></path>
                                                </svg>