    <svg version="1.2" fill="#17384C" baseProfile="tiny" xmlns="http://www.w3.org/2000/svg"
                                                xmlns:xlink="http://www.w3.org/1999/xlink" x="0px" y="0px" width="40px"
                                                height="60px" viewBox="0 0 131.999 132.303" xml:space="preserve">
                                                <path d="M131.25,5.802c-0.48-1.14-1.175-2.162-2.033-3.019c-0.856-0.856-1.879-1.553-3.018-2.034
      		C125.061,0.266,123.803,0,122.5,0c0,0-21.187,0-28.249,0c-2.46,0.021-5.21,0.666-8.348,1.539C78.491,3.643,69.401,7.305,66,8.709
      		c-1.984-0.818-5.903-2.403-10.28-3.998c-3.142-1.144-6.515-2.292-9.623-3.172C42.96,0.666,40.21,0.021,37.75,0H9.5
      		C8.198,0,6.939,0.266,5.8,0.749C4.66,1.23,3.638,1.927,2.782,2.785C1.925,3.64,1.231,4.662,0.748,5.802C0.266,6.941,0,8.197,0,9.501
      		V113.5c0,1.302,0.266,2.561,0.748,3.698c0.483,1.142,1.178,2.161,2.036,3.02c0.854,0.856,1.876,1.551,3.016,2.034
      		C6.939,122.733,8.198,123,9.5,123c0,0,21.188,0,28.251,0c1.071-0.021,3.619,0.458,6.438,1.273c4.281,1.212,9.436,3.082,13.474,4.644
      		c4.044,1.563,6.96,2.803,6.969,2.805L66,132.303l1.369-0.581c0.003-0.002,1.288-0.548,3.358-1.383
      		c3.104-1.248,7.939-3.126,12.584-4.671c4.58-1.557,9.264-2.72,10.939-2.668c7.063,0,28.249,0,28.249,0
      		c1.304,0,2.562-0.267,3.7-0.748c1.139-0.483,2.161-1.178,3.02-2.038c0.856-0.854,1.551-1.874,2.031-3.016
      		c0.484-1.138,0.75-2.396,0.748-3.698V9.501C132,8.197,131.735,6.941,131.25,5.802z M62.5,123.295c-1.93-0.765-4.272-1.67-6.78-2.583
      		c-3.142-1.144-6.515-2.292-9.623-3.174c-3.138-0.871-5.887-1.516-8.347-1.537c-3.532-0.001-10.587-0.002-16.763-0.002
      		S9.514,116,9.5,116.001c-0.356-0.002-0.675-0.07-0.972-0.196c-0.296-0.126-0.566-0.309-0.792-0.534
      		c-0.232-0.232-0.416-0.503-0.541-0.799c-0.126-0.299-0.194-0.618-0.196-0.972V9.501c0.002-0.355,0.07-0.675,0.196-0.974
      		C7.32,8.233,7.503,7.961,7.733,7.733c0.228-0.23,0.499-0.413,0.794-0.539C8.824,7.068,9.144,7.001,9.5,6.998c0,0,21.188,0,28.251,0
      		c1.071-0.021,3.619,0.461,6.438,1.276c4.281,1.21,9.436,3.082,13.474,4.644c1.939,0.748,3.613,1.421,4.837,1.92V123.295z M125,113.5
      		c0,0.354-0.07,0.673-0.197,0.972c-0.123,0.296-0.309,0.566-0.536,0.797c-0.228,0.228-0.498,0.41-0.794,0.536
      		c-0.299,0.126-0.618,0.194-0.974,0.196c0-0.002-21.187-0.002-28.249,0c-2.46,0.021-5.21,0.666-8.348,1.537
      		c-5.559,1.58-12.063,4.035-16.402,5.755V14.838c0.371-0.151,0.776-0.316,1.227-0.498c3.104-1.248,7.939-3.126,12.584-4.671
      		c4.58-1.557,9.264-2.72,10.939-2.671c7.063,0,28.249,0,28.249,0c0.355,0.003,0.675,0.07,0.974,0.196
      		c0.296,0.126,0.566,0.309,0.792,0.535c0.229,0.231,0.415,0.504,0.538,0.798C124.93,8.826,125,9.146,125,9.501V113.5z M47.285,50.988
      		H37.257v-2.507c0-1.386-1.123-2.507-2.508-2.507s-2.506,1.121-2.506,2.507v2.507H22.216c-1.387,0-2.508,1.122-2.508,2.507
      		s1.121,2.508,2.508,2.508h16.77c-0.924,2.647-2.268,5.129-3.984,7.35c-1.16-1.158-2.225-2.405-3.188-3.73
      		c-0.777-1.147-2.334-1.447-3.482-0.675c-1.141,0.771-1.445,2.313-0.689,3.461c1.154,1.625,2.449,3.15,3.865,4.555
      		c-2.24,1.867-4.814,3.294-7.584,4.209c-1.316,0.438-2.027,1.858-1.588,3.173c0.434,1.315,1.857,2.027,3.174,1.591
      		c3.59-1.178,6.91-3.067,9.756-5.557c2.59,2.109,5.404,3.931,8.393,5.428c1.24,0.619,2.746,0.116,3.363-1.124
      		c0.621-1.238,0.117-2.744-1.121-3.362c-2.535-1.279-4.926-2.821-7.139-4.599c2.5-3.186,4.361-6.827,5.48-10.719h3.043
      		c1.385,0,2.508-1.123,2.508-2.508S48.669,50.988,47.285,50.988z M100.383,47.796c-0.591-1.188-1.806-1.94-3.133-1.94
      		c-1.328,0-2.543,0.752-3.133,1.94L82.509,71.131c-0.861,1.73-0.157,3.832,1.574,4.693c0.501,0.248,1.032,0.366,1.557,0.366
      		c1.286,0,2.524-0.711,3.137-1.94v-0.002l1.714-3.446h13.518l1.715,3.446c0.861,1.73,2.963,2.436,4.693,1.576
      		c1.73-0.861,2.436-2.963,1.574-4.693L100.383,47.796z M93.973,63.801l3.275-6.587l3.277,6.587H93.973z"></path>
                                          </svg>
      