
       <svg id="INDmenuHeader_bg" class="INDmenuHeader_bg" width="780px" height="205px" viewBox="0 0 780 205"
                        version="1.1" xmlns="http://www.w3.org/2000/svg" xmlns:xlink="http://www.w3.org/1999/xlink">
                        <defs>
                              <linearGradient id="INDmenuHeader_bg_lg" x1="131.337695%" y1="-55.9029076%" x2="11.1748909%"
                                    y2="110.373965%">
                                    <stop stop-color="#50E38B" offset="0%"></stop>
                                    <stop stop-color="#0096C2" offset="100%"></stop>
                              </linearGradient>
                        </defs>
                        <g stroke="none" stroke-width="1" fill="none" fill-rule="evenodd">
                              <path fill="url(#INDmenuHeader_bg_lg)"
                                    d="M661.102442,121 C641.442618,124.668415 626.560886,141.916285 626.560886,162.63997 C626.560886,186.034768 607.595654,205 584.200855,205 L194.806043,205 C171.560281,205 152.715867,186.155586 152.715867,162.909824 C152.715867,140.986672 135.954824,122.978271 114.548117,121 L0,121 L0,0 L780,0 L780,121 L661.102442,121 Z">
                              </path>
                        </g>
            </svg>
            
                  <svg id="INDmenuHeader_expanded_bg" class="INDmenuHeader_bg" width="525px" height="98.031px"
                        viewBox="0 0 525 98.031" version="1.1" baseProfile="basic" xmlns="http://www.w3.org/2000/svg"
                        xmlns:xlink="http://www.w3.org/1999/xlink" x="0px" y="0px" xml:space="preserve">
                        <defs>
                              <linearGradient id="INDmenuHeader_expanded_bg_lg" gradientUnits="userSpaceOnUse" x1="471.6221"
                                    y1="318.3057" x2="131.7289" y2="-152.0258">
                                    <stop stop-color="#70C383" offset="0%"></stop>
                                    <stop stop-color="#0197C2" offset="100%"></stop>
                              </linearGradient>
                        </defs>
                        <path fill="url(#INDmenuHeader_expanded_bg_lg)" d="M0,0v57.862h130.778c10.236,0.946,18.251,9.559,18.251,20.042c0,11.116,9.011,20.127,20.128,20.127
      		h186.21c11.188,0,20.258-9.067,20.258-20.256c0-9.911,7.116-18.158,16.518-19.913H525V0H0z"></path>
                  </svg>