    <svg version="1.1" 
    height="60px" 
    width="40px"
    xmlns="http://www.w3.org/2000/svg"
                                                      xmlns:xlink="http://www.w3.org/1999/xlink" x="0px" y="0px"
                                                      viewBox="0 0 96.1 127.8" style="enable-background:new 0 0 96.1 127.8;"
                                                      xml:space="preserve">
                                                      <g>
                                                            <path style="fill: white; stroke-width:7; stroke:black;"
                                                                  class="st0" d="M85.5,52.6C73.5,32,50.1,11.3,50,11.2c0,0,0,0,0,0c-0.1-0.1-0.1-0.1-0.2-0.2c0,0-0.1-0.1-0.1-0.1
      		c0,0-0.1-0.1-0.1-0.1c-0.1,0-0.2-0.1-0.3-0.1c0,0,0,0,0,0c0,0-0.1,0-0.1,0c-0.1,0-0.2-0.1-0.3-0.1c0,0-0.1,0-0.1,0
      		c-0.1,0-0.2,0-0.3-0.1c-0.1,0-0.1,0-0.2,0c-0.1,0-0.2,0-0.2,0c-0.1,0-0.2,0-0.2,0c-0.1,0-0.1,0-0.2,0c-0.1,0-0.2,0-0.3,0.1
      		c0,0-0.1,0-0.1,0c-0.1,0-0.2,0.1-0.3,0.1c0,0-0.1,0-0.1,0c0,0,0,0,0,0c-0.1,0-0.2,0.1-0.3,0.1c0,0-0.1,0-0.1,0.1
      		c0,0-0.1,0.1-0.1,0.1c-0.1,0.1-0.2,0.1-0.2,0.2c0,0,0,0,0,0c-0.1,0.1-10.5,9.3-21,21.5c-5.2,6.1-10.5,13-14.5,19.9
      		c-4,6.9-6.8,13.8-6.9,20.5c0,24.5,19.9,44.4,44.4,44.4c24.5,0,44.4-19.9,44.4-44.4C92.4,66.4,89.5,59.5,85.5,52.6z">
                                                            </path>
                                                            <g>
                                                                  <path d="M79.8,60.8C75,73.2,63.1,81.9,49.2,82.3c-14.9,0.3-27.7-9-32.5-22.3c-2.2,4.3-3.6,8.7-3.6,12.9c0,19.3,15.7,35,35,35
      			c19.3,0,35-15.7,35-35C83,68.9,81.7,64.8,79.8,60.8z"></path>
                                                                  <path d="M49.4,106.8c13.2,1.3,42.1-20,30.4-46.1c-0.7-1.4-1.4-2.7-2.2-4.1c-0.6-1.1-1.3-2.1-2-3.2c-2.9,0.4-5.8,0.7-8.8,0.8h-0.7
      			c-7.8,0-14.8-2.6-21-5c-5.4-1.9-10.4-3.8-15.2-3.8h-1.1c-0.9,0.1-1.9,0.2-2.8,0.4c-2.7,3.5-5.3,7.1-7.4,10.8
      			c-0.6,1.1-1.2,2.2-1.8,3.3C11.3,85.6,21.2,104,49.4,106.8z"></path>
                                                            </g>
                                                      </g>
                                                </svg>