  <svg
          version="1.2"
          baseProfile="tiny"
          viewBox="0 0 12.028 15.293"
          style="width: 25px; height: 25px ;position:fixed; top:0.7em ;left:1em;cursor: pointer;" 
        >
          <g>
            <path
              fillRule="evenodd"
              fill="#ffffff"
              d="M8.466,14.317l1.059,0.962h2.504l-1.174-1.065l-1.173-1.067L8.607,12.17l-0.284-0.258c-0.303,0.467-0.723,0.895-1.181,1.202c-0.255,0.171-0.523,0.306-0.79,0.384c-0.294,0.088-0.613,0.133-0.955,0.133c-0.51,0-0.98-0.099-1.412-0.295c-0.432-0.194-0.802-0.46-1.11-0.793c-0.309-0.334-0.549-0.722-0.72-1.169c-0.087-0.225-0.152-0.457-0.194-0.696L0.891,9.707L0.089,8.979C0.03,9.304,0,9.64,0,9.983c0,0.727,0.132,1.412,0.397,2.06c0.264,0.648,0.631,1.212,1.103,1.691c0.47,0.48,1.034,0.859,1.691,1.138c0.657,0.281,1.382,0.421,2.176,0.421c0.137,0,0.274-0.004,0.407-0.014c0.455-0.03,0.883-0.112,1.285-0.244C7.556,14.872,8.03,14.625,8.466,14.317L8.466,14.317z"
            ></path>
            <path
              fillRule="evenodd"
              fill="#ffffff"
              d="M10.502,11.615c0.175-0.528,0.263-1.081,0.263-1.66c0-0.725-0.133-1.412-0.398-2.061c-0.264-0.646-0.631-1.209-1.102-1.689s-1.035-0.861-1.691-1.14c-0.656-0.28-1.382-0.419-2.176-0.419c-0.672,0-1.345,0.104-1.975,0.344l0.665-1.688H2.278L0.716,7.272l1.425,1.295l2.248,2.043l1.251-1.137L3.09,7.154c0.628-0.56,1.438-0.847,2.277-0.847c0.509,0,0.98,0.098,1.412,0.295c0.431,0.196,0.802,0.46,1.11,0.795C8.198,7.729,8.438,8.121,8.61,8.565C8.781,9.01,8.867,9.484,8.867,9.983c0,0.051-0.001,0.098-0.003,0.146l0.691,0.628L10.502,11.615L10.502,11.615z M3.865,0c0.693,0,1.254,0.561,1.254,1.253c0,0.693-0.561,1.254-1.254,1.254S2.611,1.946,2.611,1.253C2.611,0.561,3.172,0,3.865,0z"
            ></path>
          </g>
        </svg>