  <svg 
  version="1.1" 
  height="60px"
   width="40px"
  xmlns="http://www.w3.org/2000/svg"
                                                      xmlns:xlink="http://www.w3.org/1999/xlink" x="0px" y="0px"
                                                      viewBox="0 0 96.1 127.8" style="enable-background:new 0 0 96.1 127.8;"
                                                      xml:space="preserve">
      
                                                      <g>
                                                            <path style="fill: white; stroke-width:7; stroke:black;" d="M85.8,52.5C73.7,31.7,50.2,11,50,10.8l0,0c-0.1-0.1-0.2-0.1-0.2-0.2l-0.1-0.1l-0.1-0.1c-0.1,0-0.2-0.1-0.3-0.1
      		l0,0h-0.1c-0.1,0-0.2-0.1-0.3-0.1h-0.1c-0.1,0-0.2,0-0.3-0.1c-0.1,0-0.1,0-0.2,0c-0.1,0-0.2,0-0.2,0c-0.1,0-0.2,0-0.2,0
      		c-0.1,0-0.1,0-0.2,0c-0.1,0-0.2,0-0.3,0.1h-0.1c-0.1,0-0.2,0.1-0.3,0.1h0l0,0c-0.1,0-0.2,0.1-0.3,0.1c0,0-0.1,0-0.1,0.1l-0.1,0.1
      		c-0.1,0.1-0.2,0.1-0.2,0.2l0,0C46,10.9,35.5,20.2,25,32.5c-5.3,6.1-10.6,13-14.6,20c-4,6.9-6.9,13.9-6.9,20.6
      		c0,24.6,20,44.6,44.6,44.6s44.6-20,44.6-44.6C92.6,66.4,89.8,59.4,85.8,52.5z"></path>
                                                            <path d="M29.5,71.2h-1.1c-4.9,0.5-9.6,1.8-14,3.9c0.4,18.7,15.9,33.5,34.6,33c16.9-0.4,30.9-13.2,32.8-30c-5,1-10,1.7-15,1.9H66
      		c-8,0-15-2.6-21.2-5C39.4,73.1,34.3,71.2,29.5,71.2z"></path>
                                                      </g>
                                                </svg>