   <svg 
   id="IND-menu-media-svg" 
   width="40px"
  height="50px"
   xmlns="http://www.w3.org/2000/svg"
                                                viewBox="0 0 46.91 41.91">
                                                <path
                                                      d="M24.22,3.39l-8.26,7.85H3.66c-.96,0-1.73.94-1.73,2.1v16.26c0,1.16.78,2.1,1.73,2.1h12.31l8.26,7.83c.74.7,1.83.06,1.83-1.08V4.47c0-1.14-1.09-1.79-1.83-1.08Z">
                                                </path>
                                                <g>
                                                      <path
                                                            d="M44.87,27.45l-13.3-12.89c-.52-.5-1.34-.49-1.84.03s-.49,1.34.03,1.84l13.3,12.89c.52.5,1.34.49,1.84-.03s.49-1.34-.03-1.84">
                                                      </path>
                                                      <path
                                                            d="M42.83,14.38l-12.89,13.3c-.5.52-.49,1.34.03,1.84s1.34.49,1.84-.03l12.89-13.3c.5-.52.49-1.34-.03-1.84s-1.34-.49-1.84.03">
                                                      </path>
                                                </g>
                                          </svg>