    <svg version="1.2" baseProfile="tiny" xmlns="http://www.w3.org/2000/svg"
                                                xmlns:xlink="http://www.w3.org/1999/xlink" x="0px" y="0px" width="35px"
                                                height="60px" viewBox="0 0 100 132.002" xml:space="preserve">
                                                <path fill="#010101" d="M90.5,0L9.499,0.002C4.251,0.004,0.002,4.253,0,9.501v113c0.002,5.248,4.251,9.497,9.499,9.501L90.5,132
      		c5.248-0.002,9.498-4.251,9.5-9.499v-113C99.998,4.253,95.748,0.004,90.5,0z M92.999,122.501c-0.003,1.378-1.12,2.498-2.499,2.498
      		l-81.001,0.003c-1.378-0.003-2.496-1.123-2.499-2.501l-0.002-113c0.004-1.378,1.123-2.498,2.5-2.498L90.5,7
      		c1.379,0.003,2.496,1.123,2.499,2.501V122.501z M68,26.47H32c-1.674,0-3.031,1.356-3.031,3.031c0,1.674,1.357,3.031,3.031,3.031h36
      		c1.673,0,3.03-1.357,3.03-3.031C71.03,27.826,69.673,26.47,68,26.47z M66.75,55.138H21.666c-1.673,0-3.031,1.356-3.031,3.031
      		c0,1.673,1.358,3.03,3.031,3.03H66.75c1.673,0,3.031-1.357,3.031-3.03C69.781,56.494,68.423,55.138,66.75,55.138z M76.335,61.199
      		h1.998c1.673,0,3.03-1.357,3.03-3.03c0-1.675-1.357-3.031-3.03-3.031h-1.998c-1.675,0-3.033,1.356-3.033,3.031
      		C73.302,59.842,74.66,61.199,76.335,61.199z M21.667,73.865h45.082c1.675,0,3.031-1.357,3.031-3.031
      		c0-1.675-1.356-3.031-3.031-3.031H21.667c-1.675,0-3.031,1.356-3.031,3.031C18.636,72.508,19.992,73.865,21.667,73.865z
      		M76.334,67.803c-1.674,0-3.031,1.356-3.031,3.031c0,1.674,1.357,3.031,3.031,3.031h1.998c1.676,0,3.031-1.357,3.031-3.031
      		c0-1.675-1.355-3.031-3.031-3.031H76.334z M66.75,80.47H21.667c-1.676,0-3.031,1.356-3.031,3.031c0,1.674,1.355,3.029,3.031,3.029
      		H66.75c1.674,0,3.031-1.355,3.031-3.029C69.781,81.826,68.424,80.47,66.75,80.47z M78.333,80.47h-1.999
      		c-1.674,0-3.032,1.356-3.032,3.031c0,1.674,1.358,3.029,3.032,3.029h1.999c1.674,0,3.032-1.355,3.032-3.029
      		C81.365,81.826,80.007,80.47,78.333,80.47z M66.749,93.137H21.667c-1.674,0-3.032,1.356-3.032,3.03s1.358,3.031,3.032,3.031h45.082
      		c1.674,0,3.032-1.357,3.032-3.031S68.423,93.137,66.749,93.137z M78.333,93.137h-1.999c-1.674,0-3.031,1.356-3.031,3.03
      		s1.357,3.031,3.031,3.031h1.999c1.674,0,3.03-1.357,3.03-3.031S80.007,93.137,78.333,93.137z"></path>
                                          </svg>