 <svg 
 class="INDreadingGuideSvg" 
 width="40" height="60"
 xmlns="http://www.w3.org/2000/svg"
                                                      viewBox="0 0 59 47">
      
                                                      <rect x="3.28" y="1.64" width="54.39" height="43.76" rx="2.64" ry="2.64"
                                                            style="fill:none;stroke:black;stroke-width:4;"></rect>
                                                      <g>
                                                            <path
                                                                  d="m40.23,7.58c0,.84-.68,1.52-1.52,1.52s-1.52-.68-1.52-1.52.68-1.52,1.52-1.52,1.52.68,1.52,1.52">
                                                            </path>
                                                            <path
                                                                  d="m46.76,7.58c0,.84-.68,1.52-1.52,1.52s-1.52-.68-1.52-1.52.68-1.52,1.52-1.52,1.52.68,1.52,1.52">
                                                            </path>
                                                            <path
                                                                  d="m53.29,7.58c0,.84-.68,1.52-1.52,1.52s-1.52-.68-1.52-1.52.68-1.52,1.52-1.52,1.52.68,1.52,1.52">
                                                            </path>
                                                            <line x1="3.48" y1="11.74" x2="56.89" y2="11.74"></line>
                                                            <path
                                                                  d="m24.1,27.41H1.55c-.15,0-.28-.13-.28-.29v-9.01c0-.16.12-.28.28-.28h22.54c.27,0,.38.36.15.51l-6.05,4.03c-.09.03-.15.17-.12.3.02.08.06.15.12.17l6.05,4.03c.23.15.12.51-.15.51">
                                                            </path>
                                                            <g>
                                                                  <path
                                                                        d="m8.36,38.59c.03.51.46.91.98.88h11.14c.49.05.92-.3.97-.79.05-.49-.3-.92-.79-.97-.06,0-.12,0-.18,0h-11.14c-.51-.03-.95.37-.98.88">
                                                                  </path>
                                                                  <path
                                                                        d="m8.36,33.5c.03.51.46.91.98.88h7.66c.49.05.92-.3.97-.79.05-.49-.3-.92-.79-.97-.06,0-.12,0-.18,0h-7.66c-.51-.03-.95.37-.98.88">
                                                                  </path>
                                                                  <path
                                                                        d="m33.09,38.59c.03.51.46.91.98.88h7.66c.49.05.92-.3.97-.79.05-.49-.3-.92-.79-.97-.06,0-.12,0-.18,0h-7.66c-.51-.03-.95.37-.98.88">
                                                                  </path>
                                                                  <path
                                                                        d="m20.03,33.5c.03.51.46.91.98.88h12.01c.49.05.92-.3.97-.79.05-.49-.3-.92-.79-.97-.06,0-.12,0-.18,0h-12.01c-.51-.03-.95.37-.98.88">
                                                                  </path>
                                                                  <path
                                                                        d="m35.84,33.5c.03.51.46.91.98.88h5.05c.49.05.92-.3.97-.79.05-.49-.3-.92-.79-.97-.06,0-.12,0-.18,0h-5.05c-.51-.03-.95.37-.98.88">
                                                                  </path>
                                                                  <path
                                                                        d="m44.41,38.59c.03.51.46.91.98.88h7.66c.49.05.92-.3.97-.79.05-.49-.3-.92-.79-.97-.06,0-.12,0-.18,0h-7.66c-.51-.03-.95.37-.98.88">
                                                                  </path>
                                                                  <path
                                                                        d="m44.41,33.5c.03.51.46.91.98.88h7.66c.49.05.92-.3.97-.79.05-.49-.3-.92-.79-.97-.06,0-.12,0-.18,0h-7.66c-.51-.03-.95.37-.98.88">
                                                                  </path>
                                                                  <path
                                                                        d="m23.42,38.59c.03.51.46.91.98.88h5.05c.49.05.92-.3.97-.79.05-.49-.3-.92-.79-.97-.06,0-.12,0-.18,0h-5.05c-.51-.03-.95.37-.98.88">
                                                                  </path>
                                                            </g>
                                                      </g>
                                                </svg>