      <svg 
      version="1.1"  
      width="40px"
      height="60px"
      xmlns="http://www.w3.org/2000/svg"
                                                      xmlns:xlink="http://www.w3.org/1999/xlink" x="0px" y="0px"
                                                      viewBox="0 0 96.1 127.8" style="enable-background:new 0 0 96.1 127.8;"
                                                      xml:space="preserve">
                                                      <g>
                                                            <path style="fill: white; stroke-width:7; stroke:black;" d="M86.1,49.6H62.3v23.8c0,2.6-2.1,4.7-4.7,4.7H33.8v23.7c0,2.6,2.1,4.8,4.7,4.8h47.5c2.6,0,4.7-2.1,4.7-4.7V54.4
      		C90.8,51.8,88.7,49.6,86.1,49.6z"></path>
                                                            <path style="fill: white; stroke-width:7; stroke:black;" d="M38.5,49.6h23.8V25.9c0-2.6-2.1-4.7-4.7-4.7H10c-2.6,0-4.7,2.1-4.7,4.7v47.5c0,2.6,2.1,4.8,4.7,4.8h23.8V54.4
      		C33.8,51.8,35.9,49.6,38.5,49.6z"></path>
                                                            <path
                                                                  d="M62.3,73.4V49.6H38.5c-2.6,0-4.7,2.1-4.7,4.7v23.8h23.8C60.2,78.2,62.3,76,62.3,73.4z">
                                                            </path>
                                                      </g>
                                                </svg>
      