  <svg 
  version="1.2" 
  baseProfile="tiny" 
 fill="#11212a"
  xmlns="http://www.w3.org/2000/svg"
                                                      xmlns:xlink="http://www.w3.org/1999/xlink" x="0px" y="0px"
                                                      width="40px" height="60px" viewBox="0 0 108.963 125.936"
                                                      xml:space="preserve">
                                                      <path d="M9.529,84.139L9.529,84.139l0.001-0.013c0.002-3.309-1.343-6.341-3.512-8.516c-1.364-1.372-3.58-1.376-4.95-0.013
      		c-1.37,1.362-1.375,3.578-0.011,4.95l-0.002-0.002c0.918,0.927,1.474,2.172,1.476,3.58v0.016c-0.006,1.416-0.571,2.661-1.495,3.586
      		c-1.375,1.361-1.381,3.578-0.02,4.95c0.685,0.689,1.584,1.035,2.485,1.035c0.892,0,1.783-0.339,2.466-1.016
      		c2.191-2.17,3.557-5.212,3.563-8.535L9.529,84.139z M18.573,84.191l0-0.043h0c0,0,0,0,0-0.027
      		c0.002-5.963-2.418-11.396-6.317-15.314c-1.363-1.374-3.579-1.38-4.95-0.018c-1.371,1.36-1.38,3.577-0.015,4.95l-0.002-0.002
      		c2.656,2.677,4.282,6.325,4.284,10.384c0.001,0-0.001,0.031,0.001,0.129c-0.037,4.047-1.686,7.673-4.347,10.325
      		c-1.371,1.364-1.377,3.578-0.013,4.95c0.684,0.688,1.583,1.032,2.481,1.032c0.893,0,1.785-0.34,2.469-1.02
      		C16.1,95.626,18.556,90.182,18.573,84.191z M13.208,65.373c0-0.001-0.001-0.002-0.002-0.003h0L13.208,65.373z M13.222,60.422
      		c-1.372,1.361-1.378,3.577-0.017,4.948c4.787,4.821,7.731,11.425,7.731,18.743c0.002,0,0.001,0.035,0.002,0.104
      		c-0.031,7.344-3.018,13.953-7.847,18.761c-1.371,1.362-1.379,3.578-0.015,4.951c0.684,0.687,1.583,1.03,2.483,1.03
      		c0.893,0,1.785-0.339,2.468-1.018c6.092-6.052,9.884-14.459,9.91-23.724v-0.114c0-9.22-3.737-17.605-9.768-23.668
      		C16.809,59.066,14.593,59.061,13.222,60.422z M94.947,8.328C86.677,2.371,76.222,0.013,66.337,0
      		c-4.014,0.002-7.943,0.397-11.627,1.139c-8.181,1.652-16.497,5.104-22.958,10.917C25.289,17.834,20.813,26.196,20.845,36.7
      		c0.002,7.317,2.095,15.593,6.76,24.894c0.564,1.093,5.744,12.021,5.718,25.326c0.002,2.712-0.208,5.526-0.705,8.386
      		c-0.552,3.17-0.85,6.143-0.85,8.927c0,5.184,1.039,9.818,3.651,13.534c2.604,3.728,6.724,6.185,11.752,7.228
      		c3.006,0.639,5.831,0.94,8.476,0.94c0.063,0.001,0.127,0.001,0.19,0.001c12.362,0,20.444-7.006,23.758-14.647
      		c1.82-4.079,2.178-8.039,2.176-11.499c-0.003-2.586-0.186-4.928-0.183-6.953c0.008-3.006,0.363-5.079,1.658-6.897
      		C87.933,79.301,93.421,76.718,98.846,71c2.661-2.849,5.079-6.491,6.816-11.478c1.748-4.992,2.872-11.305,3.251-19.779l0.002-0.005
      		c0.032-0.764,0.047-1.514,0.047-2.252C109.024,24.08,103.237,14.249,94.947,8.328z M101.921,39.437
      		c-0.355,8.013-1.418,13.651-2.865,17.77c-2.201,6.164-5.054,9.065-8.787,12.259c-3.709,3.148-8.425,6.399-12.717,12.403
      		c-2.544,3.556-2.97,7.496-2.963,10.968c0.004,2.408,0.185,4.721,0.183,6.953c-0.002,3.004-0.305,5.8-1.569,8.648
      		c-2.561,5.524-7.724,10.425-17.555,10.497c-2.11,0-4.445-0.24-7.02-0.787c-3.781-0.83-5.976-2.311-7.487-4.416
      		c-1.501-2.116-2.372-5.213-2.372-9.499c-0.002-2.28,0.247-4.869,0.745-7.728c0.573-3.296,0.809-6.511,0.811-9.585
      		c-0.025-15.088-5.637-26.78-6.463-28.462c-4.3-8.577-6.019-15.792-6.017-21.758c0.034-8.541,3.383-14.695,8.595-19.447
      		c5.214-4.718,12.427-7.807,19.65-9.251c3.203-0.645,6.677-1,10.215-1h0.032C75.112,6.989,84.22,9.184,90.847,14
      		c6.608,4.854,11.057,12.016,11.115,23.486c0,0.639-0.013,1.288-0.043,1.95H101.921z M90.176,29.071
      		c-2.014-3.307-4.874-6.704-8.907-9.28c-4.025-2.578-9.209-4.263-15.493-4.254c-3.365,0-7.044,0.47-11.065,1.495
      		c-8.33,2.069-13.29,7.136-15.733,12.072c-2.483,4.939-2.767,9.645-2.775,11.88c0,0.789,0.04,1.277,0.049,1.369
      		c0.173,1.923,1.874,3.342,3.799,3.171c0,0,0.089-0.009,0.357-0.021c0.271-0.015,0.679-0.029,1.191-0.029
      		c2.236-0.018,6.46,0.316,9.633,1.827c1.597,0.747,2.9,1.724,3.804,2.991c0.895,1.275,1.512,2.883,1.525,5.402
      		c-0.012,1.517-0.461,2.632-1.255,3.733c-1.178,1.633-3.313,3.021-5.193,3.876c-0.935,0.434-1.792,0.742-2.395,0.938
      		c-0.3,0.098-0.539,0.167-0.691,0.21c-0.152,0.042-0.184,0.049-0.184,0.049c-1.88,0.448-3.042,2.337-2.593,4.218
      		c0.385,1.607,1.82,2.689,3.404,2.689c0.269,0,0.542-0.031,0.815-0.097l-0.002-0.002c0.203-0.059,3.577-0.844,7.217-3.055
      		c1.815-1.114,3.724-2.604,5.258-4.675c1.531-2.056,2.631-4.778,2.62-7.886c0.013-3.757-1.052-7-2.83-9.471
      		c-2.687-3.733-6.606-5.59-10.141-6.587c-2.683-0.746-5.236-1.024-7.227-1.119c0.227-1.78,0.743-4.065,1.858-6.253
      		c1.802-3.452,4.777-6.765,11.214-8.448c3.534-0.899,6.629-1.279,9.341-1.279c5.068,0.01,8.787,1.29,11.728,3.155
      		c4.389,2.788,7.093,7.133,8.66,10.9c0.783,1.872,1.275,3.575,1.565,4.783c0.146,0.604,0.241,1.085,0.298,1.402
      		c0.027,0.158,0.047,0.275,0.057,0.347c0.014,0.072,0.012,0.072,0.012,0.072c0.249,1.916,2.005,3.268,3.922,3.021
      		c1.916-0.25,3.27-2.005,3.02-3.922C94.988,42.023,94.19,35.702,90.176,29.071z"></path>
                                                </svg>