   <svg 
   version="1.2" 
    fill="#17384C"
   baseProfile="tiny" 
   xmlns="http://www.w3.org/2000/svg"
                                                      xmlns:xlink="http://www.w3.org/1999/xlink" x="0px" y="0px"
                                                      width="40px" height="50px" viewBox="0 0 96.12 127.752"
                                                      xml:space="preserve">
                                                      <path d="M62.924,62.473c1.215-0.688,2.814-1.411,4.531-2.438c1.268-0.787,2.635-1.852,3.676-3.444
      		c1.049-1.586,1.631-3.628,1.618-5.839c0.005-1.458-0.604-2.691-1.233-3.531c-1.133-1.482-2.402-2.356-3.74-3.374
      		c-4.028-3.018-8.746-6.274-10.073-13.925c-0.212-1.206-0.247-3.224-0.278-5.362c-0.049-2.158-0.088-4.446-0.596-6.681
      		c-1.699-7.331-4.308-11.74-6.771-14.352c-2.454-2.615-4.72-3.321-5.28-3.438c-1.886-0.429-3.761,0.751-4.19,2.635
      		c-0.417,1.829,0.681,3.648,2.468,4.148c0.128,0.117,4.273,1.408,6.955,12.591c0.287,1.181,0.385,3.151,0.414,5.227
      		c0.045,2.097,0.03,4.284,0.375,6.391c1.303,7.959,5.838,12.898,9.604,15.938c1.88,1.537,3.6,2.693,4.609,3.531
      		c0.328,0.266,0.572,0.497,0.721,0.651c-0.058,0.808-0.243,1.206-0.463,1.563c-0.368,0.605-1.299,1.293-2.885,2.094
      		c-1.545,0.816-3.604,1.683-5.573,3.392c-0.853,0.751-1.286,1.864-1.167,2.994c0.223,2.115,0.707,3.923,1.086,5.332
      		c0.189,0.664,0.338,1.254,0.438,1.704c-0.406,0.111-0.902,0.232-1.435,0.335c-2.071,0.43-4.896,0.844-7.495,1.216
      		c-2.634,0.385-4.935,0.695-6.536,1.091c-1.414,0.357-2.462,1.565-2.62,3.016c-0.044,0.412-0.07,0.826-0.07,1.239
      		c-0.041,3.138,1.486,5.849,3.376,7.526c2.843,2.558,6.285,3.659,8.941,4.659c1.322,0.478,2.458,0.912,3.074,1.241
      		c0.068,0.035,0.127,0.067,0.18,0.098c0.016,0.128,0.022,0.244,0.022,0.357c0.005,0.61-0.226,1.277-0.77,2.396
      		c-0.487,1.088-1.421,2.59-1.463,4.922c0.054,2.738,0.731,4.922,0.683,6.307c-0.068,1.133-0.104,1.299-0.766,1.938
      		c-0.71,0.641-2.787,1.64-6.987,2.158c-2.532,0.323-4.935,0.468-7.21,0.468c-10.884-0.006-18.853-3.316-24.16-6.598
      		c-2.649-1.642-4.62-3.278-5.904-4.479c-0.645-0.602-1.114-1.093-1.414-1.418c-0.151-0.166-0.257-0.287-0.321-0.362
      		c-0.062-0.072-0.06-0.074-0.06-0.072c-1.208-1.512-3.41-1.758-4.92-0.551c-1.512,1.206-1.756,3.409-0.55,4.921
      		c0.217,0.282,6.548,8.097,19.183,12.541v13.023c0,1.934,1.565,3.501,3.499,3.501s3.501-1.567,3.501-3.501v-11.105
      		c3.385,0.683,7.095,1.096,11.146,1.1c2.573,0,5.273-0.163,8.099-0.522c4.865-0.643,8.192-1.743,10.619-3.757
      		c2.477-2.016,3.314-5.052,3.244-7.284c-0.046-2.824-0.735-5.102-0.683-6.307c-0.033-0.02,0.143-0.657,0.771-1.891
      		c0.572-1.203,1.457-3.027,1.463-5.428c0-0.906-0.131-1.864-0.416-2.832c-0.459-1.516-1.434-2.431-2.256-3.036
      		c-1.482-1.049-2.977-1.567-4.541-2.162c-2.324-0.84-4.77-1.712-6.32-2.75c-0.595-0.39-1.042-0.781-1.354-1.15
      		c1.74-0.262,3.883-0.56,5.922-0.869c1.934-0.3,3.828-0.618,5.453-0.995c0.816-0.191,1.563-0.391,2.277-0.65
      		c0.723-0.296,1.396-0.493,2.352-1.387c1.223-1.205,1.619-2.896,1.588-4.063c-0.029-1.735-0.47-3.02-0.822-4.41
      		C63.288,64.003,63.088,63.245,62.924,62.473z M77.53,81.299c0.096-0.626,0.145-1.242,0.143-1.857
      		c0.002-2.627-0.854-5.112-2.334-7.126c-1.144-1.561-3.334-1.897-4.893-0.755c-1.558,1.143-1.895,3.333-0.752,4.894l-0.002-0.002
      		c0.625,0.854,0.981,1.891,0.981,2.989c0,0.254-0.019,0.518-0.062,0.802c-0.217,1.384-0.963,2.531-2.019,3.31
      		c-1.558,1.141-1.897,3.333-0.755,4.891c0.686,0.938,1.748,1.434,2.826,1.434c0.718,0,1.441-0.22,2.065-0.677
      		C75.217,87.384,77.026,84.585,77.53,81.299z M86.467,82.681c0.172-1.125,0.256-2.241,0.256-3.345c0-4.72-1.54-9.185-4.197-12.813
      		c-1.141-1.562-3.332-1.898-4.891-0.76c-1.561,1.143-1.9,3.334-0.758,4.895c1.808,2.47,2.848,5.489,2.848,8.679
      		c0,0.747-0.057,1.507-0.176,2.279c-0.625,4.025-2.806,7.394-5.855,9.633c-1.56,1.144-1.898,3.334-0.756,4.892
      		c0.688,0.936,1.75,1.433,2.827,1.433c0.718,0,1.441-0.221,2.065-0.678C82.307,93.618,85.555,88.602,86.467,82.681z M89.629,59.135
      		c-1.143-1.561-3.333-1.898-4.893-0.756c-1.559,1.143-1.898,3.333-0.756,4.893V63.27c3.261,4.455,5.139,9.906,5.139,15.672
      		c0,1.349-0.102,2.719-0.316,4.104c-1.124,7.264-5.07,13.356-10.571,17.389c-1.56,1.143-1.897,3.333-0.757,4.893
      		c0.687,0.937,1.75,1.433,2.828,1.433c0.717,0.001,1.441-0.22,2.064-0.677c6.931-5.071,11.939-12.816,13.355-21.971
      		c0.266-1.738,0.396-3.463,0.396-5.171C96.12,71.648,93.741,64.75,89.629,59.135z"></path>
                                                </svg>