<svg version="1.1" xmlns="http://www.w3.org/2000/svg" xmlns:xlink="http://www.w3.org/1999/xlink" x="0px" y="0px" width="160" height="160" viewBox="0 0 160 160" enable-background="new 0 0 160 160" xml:space="preserve">
	<path fill="#FFFFFF" d="M80,108.5c-15.326,0-27.75-12.424-27.75-27.75c0-3.646,0.71-7.124,1.988-10.313l-15.001-15.63
		c-5.434,5.52-9.876,12.168-12.891,19.756c-1.51,3.793-1.51,8.145,0,11.943c8.92,22.428,30.021,36.922,53.754,36.922
		c7.397,0,14.537-1.411,21.134-4.027L89.25,106.915C86.356,107.938,83.244,108.5,80,108.5z" stroke="#FFFFFF"></path>
	<path fill="#FFFFFF" d="M133.858,86.506c1.511-3.795,1.511-8.146,0-11.943c-8.925-22.43-30.026-36.922-53.758-36.922
		c-9.967,0-19.469,2.559-27.799,7.191l-0.398-0.415L37.591,29.504c-1.789-1.863-4.68-1.863-6.469,0c-1.789,1.863-1.789,4.876,0,6.739
		L54.07,60.152l0,0l46.563,48.514l7.247,7.551l14.725,15.342c0.896,0.934,2.068,1.4,3.238,1.4c1.172,0,2.342-0.467,3.234-1.396
		c1.789-1.863,1.789-4.875,0-6.738l-13.325-13.884C123.607,104.711,129.925,96.395,133.858,86.506z M80,53
		c15.326,0,27.75,12.424,27.75,27.75c0,6.102-1.979,11.734-5.316,16.313L64.612,57.658C69.016,54.717,74.307,53,80,53z" stroke="#FFFFFF"></path>
</svg>