<svg version="1.2" baseProfile="tiny" xmlns="http://www.w3.org/2000/svg" xmlns:xlink="http://www.w3.org/1999/xlink" x="0px" y="0px" width="155.66" height="97.318" viewBox="0 0 155.66 97.318" xml:space="preserve">
	<path d="M72.927,44.19h9.809c2.157,0,3.906-1.749,3.906-3.91v-9.804c0-2.164-1.745-3.909-3.906-3.909h-9.809
		c-2.161,0-3.906,1.745-3.908,3.909v9.804C69.021,42.441,70.768,44.19,72.927,44.19z M72.93,17.627h9.805
		c2.159-0.003,3.908-1.753,3.91-3.91V3.909c-0.002-2.16-1.75-3.906-3.91-3.909H72.93c-2.163,0.003-3.909,1.749-3.91,3.909v9.808
		C69.02,15.874,70.771,17.624,72.93,17.627z M49.923,17.627h9.805c2.159,0,3.91-1.753,3.91-3.91V3.909
		C63.636,1.749,61.889,0,59.728,0h-9.805c-2.163,0.003-3.909,1.749-3.911,3.909v9.808C46.013,15.874,47.764,17.624,49.923,17.627z
		M72.93,70.755h9.805c2.16,0,3.908-1.749,3.91-3.91v-9.804c-0.002-2.161-1.747-3.911-3.91-3.913H72.93
		c-2.163,0.002-3.909,1.752-3.91,3.913v9.804C69.02,69.006,70.771,70.755,72.93,70.755z M95.934,17.627h9.806
		c2.159-0.006,3.906-1.753,3.91-3.91V3.909c0-2.157-1.749-3.909-3.91-3.909h-9.806c-2.16,0-3.91,1.749-3.91,3.909v9.808
		C92.023,15.874,93.775,17.627,95.934,17.627z M118.94,44.19h9.806c2.156,0,3.907-1.749,3.91-3.91v-9.804
		c-0.003-2.164-1.751-3.909-3.91-3.913h-9.806c-2.161,0-3.907,1.756-3.911,3.913v9.804C115.033,42.438,116.781,44.188,118.94,44.19z
		M95.934,70.755h9.806c2.159-0.004,3.906-1.749,3.911-3.91v-9.804c-0.001-2.161-1.75-3.911-3.911-3.913h-9.806
		c-2.16,0.002-3.91,1.752-3.912,3.913v9.804C92.023,69.006,93.775,70.755,95.934,70.755z M118.94,17.627h9.804
		c2.158,0,3.909-1.75,3.909-3.91V3.909C132.652,1.749,130.905,0,128.744,0h-9.804c-2.161,0-3.907,1.752-3.911,3.909v9.808
		C115.033,15.874,116.781,17.621,118.94,17.627z M49.923,44.19h9.805c2.157,0,3.91-1.749,3.91-3.91v-9.804
		c-0.002-2.164-1.75-3.909-3.91-3.909h-9.805c-2.163,0-3.909,1.745-3.911,3.909v9.804C46.013,42.441,47.764,44.19,49.923,44.19z
		M95.934,44.19h9.806c2.159-0.005,3.906-1.752,3.91-3.91v-9.804c0-2.164-1.749-3.909-3.91-3.909h-9.806
		c-2.16,0-3.908,1.745-3.91,3.909v9.804C92.023,42.441,93.775,44.19,95.934,44.19z M3.91,44.19h9.807c2.159,0,3.909-1.745,3.91-3.91
		v-9.804c-0.001-2.164-1.749-3.909-3.91-3.909H3.91c-2.161,0-3.908,1.745-3.91,3.909v9.804C0.002,42.441,1.753,44.19,3.91,44.19z
		M49.921,70.755h9.807c2.159,0,3.908-1.749,3.912-3.91v-9.804c-0.003-2.161-1.751-3.911-3.912-3.913h-9.807
		c-2.161,0.002-3.906,1.752-3.908,3.913v9.804C46.015,69.006,47.762,70.755,49.921,70.755z M151.75,53.13l-32.81-0.002
		c-2.162,0.002-3.911,1.752-3.911,3.913v9.804c0,2.161,1.75,3.91,3.911,3.91h32.81c2.16,0,3.91-1.749,3.91-3.91v-9.804
		C155.658,54.877,153.911,53.13,151.75,53.13z M151.75,26.567h-9.805c-2.161,0-3.908,1.745-3.91,3.909v9.804
		c0.002,2.161,1.749,3.91,3.91,3.91h9.805c2.16,0,3.91-1.749,3.91-3.91v-9.804C155.658,28.313,153.911,26.567,151.75,26.567z
		M151.752,0h-9.807c-2.163,0.003-3.908,1.749-3.91,3.909v9.808c0,2.157,1.749,3.907,3.91,3.91h9.807c2.158,0,3.908-1.753,3.908-3.91
		V3.909C155.658,1.749,153.911,0,151.752,0z M116.279,79.691H39.383c-2.164,0.006-3.909,1.753-3.911,3.914v9.804
		c0.001,2.16,1.749,3.909,3.911,3.909h76.896c2.16,0,3.91-1.749,3.912-3.909v-9.804C120.188,81.444,118.443,79.697,116.279,79.691z
		M26.918,44.19h9.805c2.157-0.002,3.908-1.745,3.91-3.91v-9.804c-0.002-2.164-1.751-3.909-3.91-3.913h-9.805
		c-2.162,0.004-3.911,1.749-3.912,3.913v9.804C23.007,42.441,24.759,44.19,26.918,44.19z M26.916,17.627h9.807
		c2.159-0.006,3.908-1.75,3.908-3.91V3.909C40.63,1.749,38.884,0,36.723,0h-9.807c-2.161,0-3.908,1.749-3.908,3.909v9.808
		C23.008,15.877,24.759,17.627,26.916,17.627z M3.91,17.627h9.807c2.159-0.003,3.909-1.75,3.91-3.91V3.909
		c-0.001-2.16-1.749-3.906-3.91-3.909H3.91C1.749,0,0.002,1.749,0,3.909v9.808C0.002,15.874,1.753,17.624,3.91,17.627z
		M40.631,66.845v-9.804c-0.001-2.168-1.747-3.911-3.908-3.911L3.912,53.128C1.749,53.13,0.003,54.88,0,57.041v9.804
		c0.002,2.161,1.751,3.91,3.912,3.91h32.812C38.88,70.751,40.63,69.008,40.631,66.845z" stroke="#17384C" fill="#17384C"></path>
</svg>