<svg version="1.2" baseProfile="tiny" xmlns="http://www.w3.org/2000/svg" xmlns:xlink="http://www.w3.org/1999/xlink" x="0px" y="0px" width="13.328" height="14.977" viewBox="0 0 13.328 14.977" xml:space="preserve">
<path fill="#FFFFFF" d="M8.193,10.115c-0.282,0-0.511,0.229-0.511,0.51c-0.001,1.189-0.635,2.287-1.664,2.881
	c-1.593,0.922-3.63,0.377-4.55-1.215c-0.922-1.593-0.377-3.63,1.215-4.551C2.695,7.733,2.707,7.727,2.719,7.72
	c0.237-0.15,0.309-0.465,0.157-0.705C2.725,6.777,2.41,6.707,2.171,6.857C0.827,7.635,0.001,9.07,0,10.622
	c0,2.404,1.947,4.354,4.352,4.355c2.402-0.004,4.35-1.948,4.353-4.352C8.704,10.344,8.476,10.115,8.193,10.115z M5.217,2.523
	c0.683,0,1.235-0.552,1.235-1.234c0-0.186-0.044-0.358-0.116-0.516C6.152,0.32,5.708,0,5.188,0c-0.685,0-1.24,0.556-1.24,1.241
	c0,0.272,0.091,0.521,0.239,0.725C4.408,2.301,4.787,2.523,5.217,2.523z M12.408,11.542c-0.507,0-0.918,0.412-0.918,0.919
	c0,0.509,0.411,0.919,0.918,0.919c0.509,0,0.92-0.41,0.92-0.919C13.328,11.954,12.917,11.542,12.408,11.542z M11.678,10.709
	c0.058-0.158,0.053-0.337-0.035-0.496c-0.007-0.012-0.014-0.022-0.021-0.033L9.924,7.579C9.656,7.169,9.174,6.957,8.691,7.03
	L7.049,7.287C6.973,7.3,6.898,7.282,6.84,7.241C6.791,7.2,6.752,7.144,6.74,7.076C6.733,7.035,6.734,6.992,6.746,6.951l0.621-1.983
	l2.403,0.564c0.351,0.08,0.702-0.141,0.782-0.493c0.08-0.351-0.141-0.702-0.492-0.781L6.934,3.524
	C6.85,3.497,6.246,3.225,5.391,3.225c-0.885,0-1.42,0.158-1.729,0.308C3.621,3.549,3.58,3.569,3.54,3.593L0.81,5.285
	C0.504,5.477,0.412,5.881,0.604,6.187C0.797,6.491,1.2,6.583,1.506,6.392l1.785-1.106l0.641,2.781
	C4.07,8.67,4.503,9.128,5.043,9.331c0.318,0.126,0.676,0.161,1.035,0.08l1.884-0.427c0.454-0.1,0.923,0.062,1.22,0.418l1.275,1.564
	c0.063,0.077,0.145,0.129,0.23,0.168c0.181,0.084,0.395,0.088,0.577-0.014l0.151-0.087C11.546,10.959,11.632,10.841,11.678,10.709z"></path>
</svg>