<svg version="1.1" xmlns="http://www.w3.org/2000/svg" xmlns:xlink="http://www.w3.org/1999/xlink" x="0px" y="0px" width="160" height="160" viewBox="0 0 160 160" enable-background="new 0 0 160 160" xml:space="preserve">
	<g stroke="#FFFFFF" fill="#FFFFFF">
		<g transform="translate(26.000000, 26.000000)" stroke="#FFFFFF" fill="#FFFFFF">
			<path fill="#FFFFFF" d="M107.477,2.777c-0.458-1.096-1.33-1.977-2.426-2.426L103.335,0H58.406c-2.471,0-4.493,2.013-4.493,4.493
				s2.022,4.493,4.493,4.493h34.082L8.985,92.488V58.406c0-2.48-2.013-4.493-4.493-4.493S0,55.926,0,58.406v44.946l0.341,1.698
				l0.935,1.402l0.036,0.054l0.036,0.036l1.42,0.934l1.725,0.352h44.928c2.48,0,4.493-2.022,4.493-4.493
				c0-2.472-2.013-4.493-4.493-4.493H15.338l83.503-83.503v34.083c0,2.48,2.021,4.493,4.492,4.493c2.472,0,4.493-2.013,4.493-4.493
				V4.493L107.477,2.777z" stroke="#FFFFFF" stroke-width="6px"></path>
		</g>
	</g>
</svg>